<svg xmlns="http://www.w3.org/2000/svg" xmlns:xlink="http://www.w3.org/1999/xlink" width="321" zoomAndPan="magnify" viewBox="0 0 240.75 141.750002" height="188" preserveAspectRatio="xMidYMid meet" version="1.0"><defs><g/><clipPath id="a47a3e3eaf"><path d="M 0.0859375 0 L 240.414062 0 L 240.414062 141.5 L 0.0859375 141.5 Z M 0.0859375 0 " clip-rule="nonzero"/></clipPath><clipPath id="eed177d6aa"><path d="M 72.863281 6.019531 L 167.945312 6.019531 L 167.945312 98.855469 L 72.863281 98.855469 Z M 72.863281 6.019531 " clip-rule="nonzero"/></clipPath></defs><g clip-path="url(#a47a3e3eaf)"><path fill="#ffffff" d="M 0.0859375 0 L 240.414062 0 L 240.414062 141.5 L 0.0859375 141.5 Z M 0.0859375 0 " fill-opacity="1" fill-rule="nonzero"/><path fill="#ffffff" d="M 0.0859375 0 L 240.414062 0 L 240.414062 141.5 L 0.0859375 141.5 Z M 0.0859375 0 " fill-opacity="1" fill-rule="nonzero"/></g><g clip-path="url(#eed177d6aa)"><path fill="#24292f" d="M 120.261719 6.019531 C 94.054688 6.019531 72.867188 27.296875 72.867188 53.617188 C 72.867188 74.65625 86.441406 92.464844 105.273438 98.765625 C 107.628906 99.242188 108.492188 97.742188 108.492188 96.484375 C 108.492188 95.378906 108.414062 91.597656 108.414062 87.65625 C 95.230469 90.492188 92.484375 81.984375 92.484375 81.984375 C 90.363281 76.46875 87.226562 75.050781 87.226562 75.050781 C 82.910156 72.132812 87.539062 72.132812 87.539062 72.132812 C 92.328125 72.449219 94.839844 77.019531 94.839844 77.019531 C 99.074219 84.269531 105.902344 82.21875 108.648438 80.957031 C 109.039062 77.886719 110.296875 75.757812 111.632812 74.578125 C 101.117188 73.472656 90.050781 69.375 90.050781 51.09375 C 90.050781 45.894531 91.933594 41.636719 94.914062 38.328125 C 94.445312 37.148438 92.796875 32.261719 95.386719 25.71875 C 95.386719 25.71875 99.390625 24.460938 108.414062 30.605469 C 112.292969 29.558594 116.242188 29.035156 120.261719 29.03125 C 124.265625 29.03125 128.34375 29.582031 132.113281 30.605469 C 141.136719 24.460938 145.140625 25.71875 145.140625 25.71875 C 147.730469 32.261719 146.078125 37.148438 145.609375 38.328125 C 148.671875 41.636719 150.476562 45.894531 150.476562 51.09375 C 150.476562 69.375 139.410156 73.394531 128.816406 74.578125 C 130.542969 76.074219 132.035156 78.910156 132.035156 83.402344 C 132.035156 89.785156 131.957031 94.90625 131.957031 96.480469 C 131.957031 97.742188 132.820312 99.242188 135.171875 98.769531 C 154.007812 92.460938 167.582031 74.65625 167.582031 53.617188 C 167.660156 27.296875 146.394531 6.019531 120.261719 6.019531 Z M 120.261719 6.019531 " fill-opacity="1" fill-rule="evenodd"/></g><g fill="#000000" fill-opacity="1"><g transform="translate(50.442455, 128.311685)"><g><path d="M 15.859375 -2.28125 C 15.191406 -1.476562 14.242188 -0.851562 13.015625 -0.40625 C 11.796875 0.03125 10.445312 0.25 8.96875 0.25 C 7.40625 0.25 6.035156 -0.0859375 4.859375 -0.765625 C 3.691406 -1.453125 2.785156 -2.441406 2.140625 -3.734375 C 1.503906 -5.023438 1.175781 -6.546875 1.15625 -8.296875 L 1.15625 -9.515625 C 1.15625 -11.316406 1.457031 -12.875 2.0625 -14.1875 C 2.675781 -15.5 3.550781 -16.503906 4.6875 -17.203125 C 5.832031 -17.898438 7.171875 -18.25 8.703125 -18.25 C 10.835938 -18.25 12.503906 -17.738281 13.703125 -16.71875 C 14.910156 -15.707031 15.628906 -14.226562 15.859375 -12.28125 L 12.25 -12.28125 C 12.082031 -13.3125 11.710938 -14.066406 11.140625 -14.546875 C 10.578125 -15.023438 9.800781 -15.265625 8.8125 -15.265625 C 7.550781 -15.265625 6.59375 -14.789062 5.9375 -13.84375 C 5.28125 -12.894531 4.945312 -11.484375 4.9375 -9.609375 L 4.9375 -8.453125 C 4.9375 -6.566406 5.296875 -5.140625 6.015625 -4.171875 C 6.734375 -3.210938 7.785156 -2.734375 9.171875 -2.734375 C 10.554688 -2.734375 11.546875 -3.03125 12.140625 -3.625 L 12.140625 -6.734375 L 8.765625 -6.734375 L 8.765625 -9.46875 L 15.859375 -9.46875 Z M 15.859375 -2.28125 "/></g></g></g><g fill="#000000" fill-opacity="1"><g transform="translate(67.685642, 128.311685)"><g><path d="M 5.140625 0 L 1.5625 0 L 1.5625 -13.375 L 5.140625 -13.375 Z M 1.34375 -16.84375 C 1.34375 -17.375 1.519531 -17.8125 1.875 -18.15625 C 2.238281 -18.507812 2.726562 -18.6875 3.34375 -18.6875 C 3.957031 -18.6875 4.445312 -18.507812 4.8125 -18.15625 C 5.175781 -17.8125 5.359375 -17.375 5.359375 -16.84375 C 5.359375 -16.300781 5.171875 -15.851562 4.796875 -15.5 C 4.429688 -15.15625 3.945312 -14.984375 3.34375 -14.984375 C 2.75 -14.984375 2.265625 -15.15625 1.890625 -15.5 C 1.523438 -15.851562 1.34375 -16.300781 1.34375 -16.84375 Z M 1.34375 -16.84375 "/></g></g></g><g fill="#000000" fill-opacity="1"><g transform="translate(74.397505, 128.311685)"><g><path d="M 5.65625 -16.671875 L 5.65625 -13.375 L 7.9375 -13.375 L 7.9375 -10.765625 L 5.65625 -10.765625 L 5.65625 -4.078125 C 5.65625 -3.585938 5.75 -3.234375 5.9375 -3.015625 C 6.125 -2.804688 6.488281 -2.703125 7.03125 -2.703125 C 7.425781 -2.703125 7.773438 -2.726562 8.078125 -2.78125 L 8.078125 -0.078125 C 7.378906 0.140625 6.65625 0.25 5.90625 0.25 C 3.40625 0.25 2.128906 -1.015625 2.078125 -3.546875 L 2.078125 -10.765625 L 0.125 -10.765625 L 0.125 -13.375 L 2.078125 -13.375 L 2.078125 -16.671875 Z M 5.65625 -16.671875 "/></g></g></g><g fill="#000000" fill-opacity="1"><g transform="translate(82.951115, 128.311685)"><g><path d="M 4.859375 -11.921875 C 5.804688 -13.054688 7 -13.625 8.4375 -13.625 C 11.332031 -13.625 12.800781 -11.941406 12.84375 -8.578125 L 12.84375 0 L 9.28125 0 L 9.28125 -8.46875 C 9.28125 -9.238281 9.113281 -9.804688 8.78125 -10.171875 C 8.445312 -10.535156 7.898438 -10.71875 7.140625 -10.71875 C 6.085938 -10.71875 5.328125 -10.316406 4.859375 -9.515625 L 4.859375 0 L 1.28125 0 L 1.28125 -19 L 4.859375 -19 Z M 4.859375 -11.921875 "/></g></g></g><g fill="#000000" fill-opacity="1"><g transform="translate(97.116484, 128.311685)"><g><path d="M 9.390625 -1.359375 C 8.503906 -0.285156 7.28125 0.25 5.71875 0.25 C 4.289062 0.25 3.195312 -0.160156 2.4375 -0.984375 C 1.6875 -1.804688 1.300781 -3.015625 1.28125 -4.609375 L 1.28125 -13.375 L 4.859375 -13.375 L 4.859375 -4.734375 C 4.859375 -3.335938 5.492188 -2.640625 6.765625 -2.640625 C 7.972656 -2.640625 8.804688 -3.0625 9.265625 -3.90625 L 9.265625 -13.375 L 12.84375 -13.375 L 12.84375 0 L 9.484375 0 Z M 9.390625 -1.359375 "/></g></g></g><g fill="#000000" fill-opacity="1"><g transform="translate(111.281854, 128.311685)"><g><path d="M 13.4375 -6.5625 C 13.4375 -4.414062 12.976562 -2.742188 12.0625 -1.546875 C 11.144531 -0.347656 9.863281 0.25 8.21875 0.25 C 6.769531 0.25 5.613281 -0.304688 4.75 -1.421875 L 4.59375 0 L 1.375 0 L 1.375 -19 L 4.953125 -19 L 4.953125 -12.1875 C 5.773438 -13.144531 6.859375 -13.625 8.203125 -13.625 C 9.828125 -13.625 11.101562 -13.023438 12.03125 -11.828125 C 12.96875 -10.628906 13.4375 -8.941406 13.4375 -6.765625 Z M 9.859375 -6.828125 C 9.859375 -8.179688 9.644531 -9.164062 9.21875 -9.78125 C 8.789062 -10.40625 8.148438 -10.71875 7.296875 -10.71875 C 6.160156 -10.71875 5.378906 -10.253906 4.953125 -9.328125 L 4.953125 -4.046875 C 5.390625 -3.109375 6.179688 -2.640625 7.328125 -2.640625 C 8.472656 -2.640625 9.226562 -3.207031 9.59375 -4.34375 C 9.769531 -4.882812 9.859375 -5.710938 9.859375 -6.828125 Z M 9.859375 -6.828125 "/></g></g></g><g fill="#000000" fill-opacity="1"><g transform="translate(125.533749, 128.311685)"><g/></g></g><g fill="#000000" fill-opacity="1"><g transform="translate(131.83771, 128.311685)"><g><path d="M 8.28125 -6.59375 L 5.3125 -6.59375 L 5.3125 0 L 1.609375 0 L 1.609375 -18 L 8.296875 -18 C 10.421875 -18 12.0625 -17.523438 13.21875 -16.578125 C 14.375 -15.628906 14.953125 -14.289062 14.953125 -12.5625 C 14.953125 -11.332031 14.6875 -10.304688 14.15625 -9.484375 C 13.625 -8.671875 12.816406 -8.019531 11.734375 -7.53125 L 15.625 -0.171875 L 15.625 0 L 11.65625 0 Z M 5.3125 -9.59375 L 8.3125 -9.59375 C 9.238281 -9.59375 9.957031 -9.828125 10.46875 -10.296875 C 10.976562 -10.773438 11.234375 -11.429688 11.234375 -12.265625 C 11.234375 -13.117188 10.992188 -13.785156 10.515625 -14.265625 C 10.035156 -14.753906 9.296875 -15 8.296875 -15 L 5.3125 -15 Z M 5.3125 -9.59375 "/></g></g></g><g fill="#000000" fill-opacity="1"><g transform="translate(147.993154, 128.311685)"><g><path d="M 7.53125 0.25 C 5.570312 0.25 3.972656 -0.347656 2.734375 -1.546875 C 1.503906 -2.753906 0.890625 -4.363281 0.890625 -6.375 L 0.890625 -6.71875 C 0.890625 -8.0625 1.148438 -9.257812 1.671875 -10.3125 C 2.191406 -11.375 2.925781 -12.191406 3.875 -12.765625 C 4.832031 -13.335938 5.921875 -13.625 7.140625 -13.625 C 8.960938 -13.625 10.398438 -13.046875 11.453125 -11.890625 C 12.503906 -10.742188 13.03125 -9.109375 13.03125 -6.984375 L 13.03125 -5.53125 L 4.515625 -5.53125 C 4.628906 -4.65625 4.976562 -3.953125 5.5625 -3.421875 C 6.144531 -2.898438 6.878906 -2.640625 7.765625 -2.640625 C 9.140625 -2.640625 10.21875 -3.132812 11 -4.125 L 12.75 -2.171875 C 12.21875 -1.410156 11.492188 -0.816406 10.578125 -0.390625 C 9.660156 0.0351562 8.644531 0.25 7.53125 0.25 Z M 7.125 -10.734375 C 6.414062 -10.734375 5.835938 -10.492188 5.390625 -10.015625 C 4.953125 -9.535156 4.671875 -8.851562 4.546875 -7.96875 L 9.515625 -7.96875 L 9.515625 -8.25 C 9.503906 -9.039062 9.289062 -9.648438 8.875 -10.078125 C 8.46875 -10.515625 7.882812 -10.734375 7.125 -10.734375 Z M 7.125 -10.734375 "/></g></g></g><g fill="#000000" fill-opacity="1"><g transform="translate(161.676456, 128.311685)"><g><path d="M 13.421875 -6.5625 C 13.421875 -4.5 12.953125 -2.847656 12.015625 -1.609375 C 11.078125 -0.367188 9.8125 0.25 8.21875 0.25 C 6.875 0.25 5.785156 -0.21875 4.953125 -1.15625 L 4.953125 5.140625 L 1.375 5.140625 L 1.375 -13.375 L 4.6875 -13.375 L 4.8125 -12.078125 C 5.675781 -13.109375 6.804688 -13.625 8.203125 -13.625 C 9.847656 -13.625 11.128906 -13.015625 12.046875 -11.796875 C 12.960938 -10.578125 13.421875 -8.894531 13.421875 -6.75 Z M 9.84375 -6.828125 C 9.84375 -8.066406 9.617188 -9.023438 9.171875 -9.703125 C 8.734375 -10.378906 8.097656 -10.71875 7.265625 -10.71875 C 6.140625 -10.71875 5.367188 -10.289062 4.953125 -9.4375 L 4.953125 -3.953125 C 5.390625 -3.078125 6.164062 -2.640625 7.28125 -2.640625 C 8.988281 -2.640625 9.84375 -4.035156 9.84375 -6.828125 Z M 9.84375 -6.828125 "/></g></g></g><g fill="#000000" fill-opacity="1"><g transform="translate(175.928351, 128.311685)"><g><path d="M 0.8125 -6.8125 C 0.8125 -8.144531 1.066406 -9.328125 1.578125 -10.359375 C 2.085938 -11.398438 2.820312 -12.203125 3.78125 -12.765625 C 4.75 -13.335938 5.867188 -13.625 7.140625 -13.625 C 8.941406 -13.625 10.410156 -13.070312 11.546875 -11.96875 C 12.691406 -10.863281 13.332031 -9.363281 13.46875 -7.46875 L 13.5 -6.546875 C 13.5 -4.492188 12.921875 -2.847656 11.765625 -1.609375 C 10.617188 -0.367188 9.082031 0.25 7.15625 0.25 C 5.226562 0.25 3.6875 -0.367188 2.53125 -1.609375 C 1.382812 -2.847656 0.8125 -4.53125 0.8125 -6.65625 Z M 4.390625 -6.546875 C 4.390625 -5.285156 4.628906 -4.316406 5.109375 -3.640625 C 5.585938 -2.972656 6.269531 -2.640625 7.15625 -2.640625 C 8.019531 -2.640625 8.695312 -2.96875 9.1875 -3.625 C 9.675781 -4.289062 9.921875 -5.351562 9.921875 -6.8125 C 9.921875 -8.0625 9.675781 -9.023438 9.1875 -9.703125 C 8.695312 -10.390625 8.015625 -10.734375 7.140625 -10.734375 C 6.265625 -10.734375 5.585938 -10.390625 5.109375 -9.703125 C 4.628906 -9.023438 4.390625 -7.972656 4.390625 -6.546875 Z M 4.390625 -6.546875 "/></g></g></g></svg>